<?xml version="1.0" encoding="UTF-8" standalone="no"?>
<svg
   width="32"
   height="32"
   viewBox="0 0 256 256"
   version="1.1"
   id="svg1059"
   sodipodi:docname="eyes.svg"
   inkscape:version="1.1.2 (0a00cf5339, 2022-02-04)"
   xmlns:inkscape="http://www.inkscape.org/namespaces/inkscape"
   xmlns:sodipodi="http://sodipodi.sourceforge.net/DTD/sodipodi-0.dtd"
   xmlns="http://www.w3.org/2000/svg"
   xmlns:svg="http://www.w3.org/2000/svg">
  <defs
     id="defs1063" />
  <sodipodi:namedview
     id="namedview1061"
     pagecolor="#505050"
     bordercolor="#ffffff"
     borderopacity="1"
     inkscape:pageshadow="0"
     inkscape:pageopacity="0"
     inkscape:pagecheckerboard="1"
     showgrid="false"
     inkscape:zoom="23.28125"
     inkscape:cx="16"
     inkscape:cy="16"
     inkscape:window-width="1920"
     inkscape:window-height="1016"
     inkscape:window-x="0"
     inkscape:window-y="27"
     inkscape:window-maximized="1"
     inkscape:current-layer="svg1059" />
  <path
     fill="#888888"
     d="M220.48 60C209.21 39.37 193.42 28 176 28s-33.21 11.37-44.48 32c-1.24 2.28-2.42 4.65-3.52 7.11c-1.1-2.46-2.28-4.83-3.52-7.11C113.21 39.37 97.42 28 80 28S46.79 39.37 35.52 60C25.51 78.38 20 102.52 20 128s5.51 49.62 15.52 68c11.27 20.62 27.06 32 44.48 32s33.21-11.38 44.48-32c1.24-2.28 2.42-4.65 3.52-7.11c1.1 2.46 2.28 4.83 3.52 7.11c11.27 20.65 27.06 32 44.48 32s33.21-11.38 44.48-32c10-18.35 15.52-42.49 15.52-68s-5.51-49.62-15.52-68M152 116a12 12 0 1 1-12 12a12 12 0 0 1 12-12m-96 0a12 12 0 1 1-12 12a12 12 0 0 1 12-12m24 88c-12.08 0-25.13-15.72-31.7-40.84a35.6 35.6 0 0 0 7.7.84a36 36 0 0 0 0-72a35.6 35.6 0 0 0-7.7.84C54.87 67.72 67.92 52 80 52c17 0 36 31.21 36 76s-19 76-36 76m96 0c-12.08 0-25.13-15.72-31.7-40.84a35.6 35.6 0 0 0 7.7.84a36 36 0 0 0 0-72a35.6 35.6 0 0 0-7.7.84C150.87 67.72 163.92 52 176 52c17 0 36 31.21 36 76s-19 76-36 76"
     id="path1057"
     style="fill:#ffffff" />
</svg>
